<?xml version="1.0" encoding="utf-8"?>
<!-- Generator: Adobe Illustrator 24.3.0, SVG Export Plug-In . SVG Version: 6.00 Build 0)  -->
<svg version="1.1" id="Layer_1" xmlns="http://www.w3.org/2000/svg" xmlns:xlink="http://www.w3.org/1999/xlink" x="0px" y="0px"
	 viewBox="0 0 160 63" style="enable-background:new 0 0 160 63;" xml:space="preserve">
<style type="text/css">
	.st0{fill:#1F3161;}
	.st1{fill:#EA1D2A;}
</style>
<g>
	<g>
		<g>
			<g>
				<path class="st0" d="M75.79,21.2l-0.01,4.93l-9.39-0.03l0.01-4.93L75.79,21.2z"/>
				<path class="st0" d="M93.87,24.14l-9.25-0.03l-0.02,5.08c0,1.06,0.07,1.75,0.22,2.05c0.15,0.31,0.45,0.46,0.88,0.46
					c0.54,0,0.91-0.2,1.09-0.61c0.18-0.41,0.28-1.19,0.28-2.36l0.01-3.1l6.77,0.02l-0.01,1.73c0,1.45-0.1,2.57-0.28,3.34
					c-0.18,0.78-0.61,1.61-1.29,2.49c-0.68,0.88-1.53,1.54-2.56,1.98c-1.03,0.44-2.33,0.66-3.88,0.65c-1.51,0-2.84-0.23-4-0.67
					c-1.15-0.44-2.05-1.04-2.69-1.8c-0.64-0.76-1.08-1.6-1.33-2.52c-0.25-0.91-0.36-2.24-0.36-3.99l0.02-6.84
					c0.01-2.05,0.29-3.67,0.85-4.85c0.56-1.18,1.47-2.09,2.73-2.72c1.26-0.63,2.72-0.94,4.35-0.93c2,0.01,3.66,0.39,4.96,1.16
					c1.3,0.77,2.21,1.78,2.73,3.03c0.52,1.26,0.78,3.02,0.77,5.3L93.87,24.14z M86.72,20.29l0.01-1.72c0-1.21-0.06-2-0.19-2.35
					c-0.13-0.35-0.39-0.53-0.79-0.53c-0.49,0-0.8,0.15-0.92,0.45c-0.12,0.3-0.18,1.11-0.18,2.43l-0.01,1.72L86.72,20.29z"/>
				<path class="st0" d="M96.47,6.83l7.43,0.02c2.35,0.01,4.12,0.2,5.33,0.56c1.21,0.37,2.18,1.11,2.92,2.23
					c0.74,1.12,1.11,2.91,1.1,5.39c0,1.67-0.27,2.84-0.8,3.5c-0.53,0.66-1.56,1.16-3.11,1.51c1.72,0.4,2.89,1.04,3.5,1.95
					c0.61,0.9,0.91,2.29,0.91,4.15l-0.01,2.65c-0.01,1.93-0.23,3.37-0.68,4.3c-0.44,0.93-1.15,1.56-2.12,1.9
					c-0.97,0.34-2.95,0.51-5.94,0.5l-8.62-0.03L96.47,6.83z M103.9,11.75l-0.02,6.37c0.32-0.01,0.57-0.02,0.74-0.02
					c0.73,0,1.2-0.18,1.4-0.54c0.2-0.36,0.3-1.39,0.31-3.09c0-0.9-0.08-1.52-0.24-1.88c-0.17-0.36-0.38-0.59-0.64-0.68
					C105.18,11.82,104.67,11.76,103.9,11.75z M103.87,22.57l-0.02,8.01c1.05-0.03,1.72-0.2,2.01-0.49c0.29-0.29,0.44-1.02,0.44-2.18
					l0.01-2.67c0-1.23-0.12-1.97-0.38-2.23C105.66,22.76,104.98,22.61,103.87,22.57z"/>
				<path class="st0" d="M123.62,6.91l-0.01,3.73l-7.36-0.02l0.01-3.73L123.62,6.91z M123.6,12.07l-0.07,23.47l-7.36-0.02
					l0.07-23.47L123.6,12.07z"/>
				<path class="st0" d="M137.29,12.11l-0.02,5.2l-5.31,13.55l5.27,0.02l-0.01,4.71l-12.19-0.04l0.01-4.92l5.42-13.83l-4.83-0.01
					l0.01-4.7L137.29,12.11z"/>
			</g>
			<g>
				<g>
					<path class="st0" d="M25.76,6.65v28.64h-6.51l-0.01-19.33l-2.59,19.33h-4.62L9.3,16.4L9.29,35.29H2.79V6.65h9.64
						c0.29,1.72,0.58,3.75,0.88,6.09l1.06,7.28l1.71-13.37H25.76z"/>
					<path class="st0" d="M46.14,19.12h-7.45v-4.98c0-1.45-0.08-2.35-0.24-2.71c-0.16-0.36-0.51-0.54-1.05-0.54
						c-0.61,0-1,0.22-1.17,0.65c-0.17,0.44-0.25,1.38-0.25,2.83v13.3c0,1.39,0.08,2.3,0.25,2.72c0.16,0.42,0.54,0.64,1.11,0.64
						c0.55,0,0.92-0.21,1.09-0.64c0.17-0.43,0.26-1.42,0.26-3v-3.6h7.45v1.12c0,2.96-0.21,5.07-0.63,6.31
						c-0.42,1.24-1.34,2.33-2.78,3.26c-1.43,0.93-3.2,1.4-5.3,1.4c-2.18,0-3.98-0.4-5.39-1.19c-1.42-0.79-2.35-1.88-2.81-3.28
						c-0.46-1.4-0.69-3.5-0.69-6.31v-8.37c0-2.06,0.07-3.61,0.21-4.64c0.14-1.03,0.56-2.03,1.26-2.98c0.7-0.96,1.67-1.71,2.92-2.26
						c1.24-0.55,2.67-0.82,4.29-0.82c2.19,0,4,0.42,5.43,1.27c1.43,0.85,2.36,1.91,2.81,3.17c0.45,1.27,0.67,3.24,0.67,5.91V19.12z"
						/>
					<path class="st0" d="M61.68,6.65l4.26,28.64h-7.61l-0.4-5.15h-2.66l-0.45,5.15h-7.7l3.8-28.64H61.68z M57.74,25.06
						c-0.38-3.24-0.76-7.25-1.13-12.03c-0.76,5.48-1.24,9.49-1.43,12.03H57.74z"/>
				</g>
			</g>
			<g>
				<path d="M43.33,39.94l4.94,0.01c1.89,0.01,2.74,0.84,2.73,2.24c0,1.08-0.58,1.61-1.3,1.88v0.02c1.02,0.24,1.68,0.91,1.67,2.19
					c0,1.27-0.89,2.56-2.82,2.56l-5.25-0.02L43.33,39.94z M48.23,43.62c0.97,0,1.45-0.53,1.45-1.24c0-0.81-0.43-1.28-1.51-1.29
					l-3.52-0.01l-0.01,2.52L48.23,43.62z M48.2,47.69c1.47,0,1.86-0.74,1.86-1.5c0-0.7-0.39-1.42-1.74-1.42l-3.68-0.01l-0.01,2.92
					L48.2,47.69z"/>
				<path d="M59.34,48.87l-1.25,0l0-0.98l-0.02,0c-0.59,0.91-1.62,1.2-2.56,1.2c-1.57,0-2.74-0.68-2.73-2.31l0.01-4.44l1.24,0
					l-0.01,4.19c0,0.96,0.59,1.51,1.92,1.51c1.13,0,2.14-0.65,2.15-1.94l0.01-3.76l1.25,0L59.34,48.87z"/>
				<path d="M61.74,46.82c0,0.59,0.47,1.31,2.05,1.32c1.6,0,1.99-0.56,1.99-1.02c0-0.46-0.24-0.73-1.23-0.87l-2.05-0.28
					c-0.93-0.13-1.76-0.73-1.76-1.73c0-1.32,1.15-2.1,2.98-2.1c2.14,0.01,3.07,0.93,3.18,2.2l-1.24,0
					c-0.03-0.66-0.66-1.22-1.95-1.22c-0.8,0-1.72,0.22-1.72,0.99c0,0.44,0.2,0.68,1.08,0.81l1.77,0.24
					c1.64,0.23,2.28,0.81,2.27,1.74c0,1.52-1.29,2.22-3.28,2.22c-1.49,0-3.2-0.39-3.33-2.29L61.74,46.82z"/>
				<path d="M68.26,39.93l1.24,0l0,1.37l-1.24,0L68.26,39.93z M68.26,42.37l1.24,0l-0.02,6.52l-1.24,0L68.26,42.37z"/>
				<path d="M71.02,42.38l1.24,0l0,0.98h0.02c0.59-0.91,1.62-1.2,2.55-1.2c1.57,0,2.74,0.68,2.73,2.31l-0.01,4.44l-1.24,0l0.01-4.2
					c0-0.96-0.59-1.51-1.92-1.51c-1.13,0-2.14,0.65-2.15,1.94l-0.01,3.76l-1.24,0L71.02,42.38z"/>
				<path d="M80.12,46.04c0.1,1.34,1.29,2.07,2.4,2.07c0.71,0,1.68-0.23,2.11-1.15l1.32,0c-0.63,1.57-2.09,2.2-3.37,2.19
					c-2.54-0.01-3.78-1.62-3.77-3.5c0.01-1.88,1.26-3.48,3.79-3.47c1.72,0.01,3.53,1.01,3.52,3.71l0,0.16L80.12,46.04z M84.8,45.09
					c-0.18-1.18-1.1-1.84-2.27-1.85c-1.14,0-2.18,0.67-2.37,1.83L84.8,45.09z"/>
				<path d="M88.25,46.9c0,0.59,0.47,1.31,2.05,1.32c1.61,0,1.99-0.56,1.99-1.02c0-0.46-0.23-0.73-1.23-0.87l-2.05-0.28
					c-0.93-0.13-1.77-0.73-1.76-1.73c0-1.32,1.15-2.1,2.98-2.1c2.14,0.01,3.07,0.93,3.18,2.2l-1.24,0
					c-0.04-0.66-0.66-1.22-1.95-1.22c-0.8,0-1.72,0.22-1.72,0.99c0,0.44,0.2,0.68,1.08,0.81l1.77,0.24
					c1.64,0.23,2.27,0.81,2.27,1.74c0,1.52-1.29,2.22-3.28,2.22c-1.49,0-3.2-0.39-3.33-2.29L88.25,46.9z"/>
				<path d="M95.63,46.92c0,0.59,0.47,1.31,2.05,1.32c1.61,0,1.99-0.56,1.99-1.02c0-0.46-0.23-0.73-1.23-0.87l-2.05-0.28
					c-0.93-0.13-1.76-0.73-1.76-1.73c0-1.32,1.15-2.1,2.98-2.1c2.14,0.01,3.07,0.93,3.18,2.2l-1.24,0
					c-0.04-0.66-0.66-1.22-1.95-1.22c-0.8,0-1.72,0.22-1.72,0.99c0,0.44,0.2,0.68,1.08,0.81l1.77,0.24
					c1.64,0.23,2.28,0.81,2.27,1.74c0,1.52-1.29,2.22-3.28,2.22c-1.49,0-3.2-0.39-3.33-2.29L95.63,46.92z"/>
				<path d="M107.06,46.09c0.02,1.59,1.51,2.01,2.86,2.01c1.41,0,2.4-0.53,2.41-1.5c0-0.81-0.63-1.15-1.65-1.32l-2.02-0.34
					c-1.06-0.18-2.64-0.61-2.63-2.34c0-1.62,1.29-2.7,3.57-2.69c1.78,0.01,3.66,0.66,3.77,2.8l-1.32,0c-0.11-0.7-0.5-1.64-2.63-1.65
					c-0.97,0-2.07,0.4-2.07,1.45c0,0.55,0.36,0.98,1.45,1.18l2.18,0.38c0.7,0.13,2.67,0.47,2.67,2.28c-0.01,2.27-2.04,2.91-3.83,2.9
					c-2-0.01-4.08-0.71-4.07-3.16L107.06,46.09z"/>
				<path d="M121.15,49.05l-1.24,0l0-0.98l-0.02,0c-0.59,0.91-1.62,1.2-2.56,1.2c-1.57,0-2.74-0.68-2.73-2.31l0.01-4.44l1.24,0
					l-0.01,4.19c0,0.96,0.59,1.51,1.92,1.51c1.13,0,2.14-0.65,2.15-1.94l0.01-3.76l1.24,0L121.15,49.05z"/>
				<path d="M122.69,40.1l1.24,0l0,1.37l-1.24,0L122.69,40.1z M122.68,42.54l1.24,0l-0.02,6.52l-1.24,0L122.68,42.54z"/>
				<path d="M126,40.54l1.24,0l-0.01,2l1.87,0.01l0,0.97l-1.87-0.01l-0.01,4.02c0,0.52,0.37,0.71,1.01,0.71
					c0.29,0,0.57-0.04,0.86-0.08l0,1.04c-0.42,0.07-0.88,0.08-1.39,0.08c-1.22,0-1.72-0.6-1.71-1.55l0.01-4.23l-1.34,0l0-0.97
					l1.34,0L126,40.54z"/>
				<path d="M131.07,46.19c0.1,1.34,1.29,2.07,2.4,2.07c0.71,0,1.68-0.23,2.11-1.15l1.32,0c-0.63,1.57-2.09,2.2-3.37,2.19
					c-2.54-0.01-3.78-1.62-3.77-3.5c0.01-1.88,1.25-3.48,3.79-3.47c1.72,0.01,3.53,1.01,3.52,3.71l0,0.16L131.07,46.19z
					 M135.75,45.24c-0.18-1.18-1.1-1.84-2.27-1.85c-1.14,0-2.18,0.67-2.37,1.83L135.75,45.24z"/>
			</g>
			<path class="st1" d="M137.44,36.71L2.74,36.3c0,0-0.03,8.74-0.03,10.46c0,1.52,0.79,2.25,1.82,2.25c1.03,0,16.98,0.05,24.21,0.07
				c7.23,0.02,10.03-10.52,15.12-10.5c5.09,0.02,93.51,0.28,93.51,0.28"/>
		</g>
		<g>
			<path class="st0" d="M10.21,60.3h-1.5l-1.16-4.74H7.53L6.38,60.3H4.86l-1.81-6.97h1.51l1.08,4.74h0.02l1.19-4.74h1.41l1.17,4.8
				h0.02l1.12-4.8h1.48L10.21,60.3z"/>
			<path class="st0" d="M14.32,58.12c0.04,0.88,0.46,1.28,1.22,1.28c0.55,0,0.99-0.34,1.08-0.65h1.2c-0.38,1.19-1.2,1.7-2.32,1.7
				c-1.56,0-2.53-1.09-2.53-2.65c0-1.51,1.03-2.66,2.53-2.66c1.69,0,2.51,1.44,2.41,2.99H14.32z M16.54,57.24
				c-0.12-0.7-0.42-1.07-1.08-1.07c-0.86,0-1.11,0.68-1.13,1.07H16.54z"/>
			<path class="st0" d="M19.67,53.34h1.36v2.54h0.02c0.34-0.52,0.95-0.75,1.57-0.75c0.99,0,2.05,0.81,2.05,2.65
				c0,1.85-1.07,2.66-2.05,2.66c-0.73,0-1.33-0.22-1.63-0.78h-0.02v0.64h-1.3V53.34z M22.15,56.16c-0.81,0-1.16,0.77-1.16,1.62
				c0,0.84,0.36,1.61,1.16,1.61c0.81,0,1.16-0.77,1.16-1.61C23.31,56.94,22.95,56.16,22.15,56.16z"/>
			<path class="st0" d="M26.48,57.04h2.89v1.19h-2.89V57.04z"/>
			<path class="st0" d="M31.36,53.34h1.36v2.54h0.02c0.34-0.52,0.95-0.75,1.57-0.75c0.99,0,2.05,0.81,2.05,2.65
				c0,1.85-1.07,2.66-2.05,2.66c-0.73,0-1.33-0.22-1.63-0.78h-0.02v0.64h-1.3V53.34z M33.84,56.16c-0.81,0-1.16,0.77-1.16,1.62
				c0,0.84,0.36,1.61,1.16,1.61c0.81,0,1.16-0.77,1.16-1.61C35,56.94,34.64,56.16,33.84,56.16z"/>
			<path class="st0" d="M38.13,56.81c0.08-1.3,1.22-1.69,2.33-1.69c0.99,0,2.18,0.22,2.18,1.43v2.62c0,0.46,0.05,0.92,0.17,1.12
				h-1.38c-0.05-0.16-0.09-0.32-0.1-0.49c-0.43,0.46-1.07,0.62-1.67,0.62c-0.94,0-1.69-0.48-1.69-1.51c0-1.14,0.84-1.41,1.69-1.53
				c0.84-0.13,1.61-0.1,1.61-0.66c0-0.59-0.4-0.68-0.88-0.68c-0.52,0-0.85,0.21-0.9,0.76H38.13z M41.28,57.83
				c-0.23,0.2-0.71,0.21-1.13,0.29c-0.42,0.09-0.81,0.23-0.81,0.74c0,0.52,0.39,0.64,0.84,0.64c1.07,0,1.1-0.86,1.1-1.16V57.83z"/>
			<path class="st0" d="M45.71,58.66c0.01,0.6,0.51,0.85,1.05,0.85c0.39,0,0.89-0.16,0.89-0.64c0-0.42-0.57-0.57-1.55-0.78
				c-0.79-0.18-1.57-0.46-1.57-1.35c0-1.29,1.09-1.62,2.16-1.62c1.09,0,2.08,0.37,2.19,1.61h-1.3c-0.04-0.54-0.44-0.68-0.93-0.68
				c-0.31,0-0.76,0.06-0.76,0.47c0,0.5,0.77,0.57,1.55,0.75c0.8,0.19,1.57,0.48,1.57,1.41c0,1.33-1.13,1.76-2.27,1.76
				c-1.15,0-2.28-0.44-2.33-1.78H45.71z"/>
			<path class="st0" d="M51.89,58.12c0.04,0.88,0.46,1.28,1.22,1.28c0.55,0,0.99-0.34,1.08-0.65h1.2c-0.38,1.19-1.2,1.7-2.32,1.7
				c-1.56,0-2.53-1.09-2.53-2.65c0-1.51,1.03-2.66,2.53-2.66c1.69,0,2.51,1.44,2.41,2.99H51.89z M54.11,57.24
				c-0.12-0.7-0.42-1.07-1.08-1.07c-0.86,0-1.11,0.68-1.13,1.07H54.11z"/>
			<path class="st0" d="M60.78,59.66h-0.02c-0.32,0.55-0.87,0.78-1.51,0.78c-1.5,0-2.23-1.31-2.23-2.7c0-1.36,0.74-2.61,2.2-2.61
				c0.59,0,1.16,0.25,1.47,0.75h0.02v-2.54h1.36v6.97h-1.3V59.66z M59.59,56.16c-0.89,0-1.2,0.78-1.2,1.61
				c0,0.79,0.36,1.62,1.2,1.62c0.9,0,1.17-0.8,1.17-1.63C60.76,56.94,60.48,56.16,59.59,56.16z"/>
			<path class="st0" d="M67.84,53.34h5.13v1.29h-3.62v1.49h3.32v1.19h-3.32v1.71h3.7v1.29h-5.2V53.34z"/>
			<path class="st0" d="M75.02,53.34h3.7c1.23,0,2.01,0.87,2.01,1.92c0,0.82-0.33,1.43-1.09,1.75v0.02c0.74,0.2,0.95,0.93,1,1.63
				c0.03,0.44,0.02,1.26,0.29,1.65h-1.51c-0.18-0.44-0.16-1.11-0.24-1.67c-0.11-0.73-0.38-1.05-1.14-1.05h-1.51v2.72h-1.51V53.34z
				 M76.52,56.49h1.65c0.67,0,1.04-0.29,1.04-1c0-0.67-0.36-0.97-1.04-0.97h-1.65V56.49z"/>
			<path class="st0" d="M82.91,53.34H86c1.71,0,2.37,1.1,2.37,2.23c0,1.13-0.66,2.23-2.37,2.23h-1.58v2.5h-1.51V53.34z M84.41,56.61
				h1.17c0.7,0,1.32-0.16,1.32-1.04c0-0.89-0.62-1.04-1.32-1.04h-1.17V56.61z"/>
			<path class="st0" d="M94.93,57.99c0,0.93,0.71,1.29,1.52,1.29c0.53,0,1.33-0.16,1.33-0.87c0-0.75-1.03-0.88-2.04-1.15
				c-1.02-0.27-2.05-0.67-2.05-1.98c0-1.42,1.32-2.11,2.56-2.11c1.43,0,2.75,0.63,2.75,2.24h-1.46c-0.05-0.84-0.63-1.05-1.35-1.05
				c-0.48,0-1.04,0.2-1.04,0.79c0,0.54,0.33,0.61,2.05,1.05c0.5,0.13,2.04,0.45,2.04,2.03c0,1.28-0.99,2.23-2.85,2.23
				c-1.52,0-2.94-0.76-2.92-2.48H94.93z"/>
			<path class="st0" d="M103.35,55.12c1.56,0,2.57,1.05,2.57,2.66c0,1.6-1.01,2.65-2.57,2.65c-1.56,0-2.56-1.05-2.56-2.65
				C100.79,56.17,101.8,55.12,103.35,55.12z M103.35,59.39c0.93,0,1.21-0.81,1.21-1.61c0-0.81-0.28-1.62-1.21-1.62
				c-0.92,0-1.2,0.81-1.2,1.62C102.15,58.58,102.43,59.39,103.35,59.39z"/>
			<path class="st0" d="M107.81,53.34h1.36v6.97h-1.36V53.34z"/>
			<path class="st0" d="M115.86,60.3h-1.3v-0.7h-0.03c-0.35,0.57-0.94,0.84-1.52,0.84c-1.45,0-1.81-0.83-1.81-2.08v-3.1h1.36v2.85
				c0,0.83,0.24,1.24,0.87,1.24c0.74,0,1.06-0.42,1.06-1.44v-2.64h1.36V60.3z"/>
			<path class="st0" d="M119.59,55.26h1v0.93h-1v2.5c0,0.47,0.12,0.59,0.58,0.59c0.14,0,0.28-0.01,0.42-0.04v1.08
				c-0.23,0.04-0.53,0.05-0.8,0.05c-0.84,0-1.57-0.2-1.57-1.2v-2.98h-0.83v-0.93h0.83v-1.51h1.36V55.26z"/>
			<path class="st0" d="M123.6,54.48h-1.36v-1.14h1.36V54.48z M122.23,55.26h1.36v5.04h-1.36V55.26z"/>
			<path class="st0" d="M128.04,55.12c1.56,0,2.57,1.05,2.57,2.66c0,1.6-1.01,2.65-2.57,2.65c-1.56,0-2.56-1.05-2.56-2.65
				C125.48,56.17,126.49,55.12,128.04,55.12z M128.04,59.39c0.93,0,1.21-0.81,1.21-1.61c0-0.81-0.28-1.62-1.21-1.62
				c-0.92,0-1.2,0.81-1.2,1.62C126.84,58.58,127.12,59.39,128.04,59.39z"/>
			<path class="st0" d="M132.46,55.26h1.3v0.7h0.03c0.35-0.57,0.94-0.84,1.52-0.84c1.45,0,1.81,0.83,1.81,2.08v3.1h-1.36v-2.85
				c0-0.83-0.24-1.24-0.87-1.24c-0.74,0-1.06,0.42-1.06,1.44v2.64h-1.36V55.26z"/>
		</g>
	</g>
	<g>
		<g>
			<path class="st1" d="M145.31,9.67l0.81,0.1v0.41h-3.98V9.77l0.81-0.1c0.16-0.02,0.25-0.06,0.28-0.13
				c0.03-0.07,0.04-0.27,0.04-0.59V5.21c0-0.66-0.09-1.15-0.27-1.47c-0.18-0.32-0.47-0.48-0.85-0.48c-0.37,0-0.7,0.13-1.01,0.4
				c-0.31,0.27-0.56,0.65-0.75,1.14v4.15c0,0.33,0.01,0.52,0.04,0.59c0.03,0.07,0.12,0.11,0.28,0.13l0.81,0.1v0.41h-3.98V9.77
				l0.81-0.1c0.16-0.02,0.25-0.06,0.28-0.13c0.03-0.07,0.04-0.27,0.04-0.59V3.93c0-0.33-0.02-0.52-0.04-0.59
				c-0.03-0.07-0.12-0.11-0.28-0.13l-0.81-0.1V2.68h2.75v1.3c0.25-0.46,0.58-0.82,1.01-1.07c0.42-0.25,0.88-0.38,1.38-0.38
				c0.53,0,0.98,0.14,1.35,0.41c0.37,0.27,0.63,0.66,0.79,1.16c0.24-0.49,0.57-0.88,1.01-1.15c0.43-0.28,0.91-0.41,1.44-0.41
				c0.71,0,1.27,0.24,1.68,0.71c0.41,0.47,0.61,1.13,0.61,1.95v3.75c0,0.33,0.02,0.52,0.04,0.59c0.03,0.07,0.12,0.11,0.28,0.13
				l0.81,0.1v0.41h-3.98V9.77l0.81-0.1c0.16-0.02,0.25-0.06,0.28-0.13c0.03-0.07,0.04-0.27,0.04-0.59V5.21
				c0-0.66-0.09-1.15-0.27-1.47c-0.18-0.32-0.47-0.48-0.85-0.48c-0.37,0-0.71,0.14-1.02,0.41c-0.32,0.28-0.57,0.67-0.76,1.17
				c0.01,0.04,0.01,0.08,0.01,0.13c0,0.05,0,0.12,0,0.22v3.75c0,0.33,0.02,0.52,0.04,0.59C145.06,9.61,145.15,9.65,145.31,9.67z"/>
			<path class="st1" d="M155.88,8.63c0-0.32-0.11-0.58-0.32-0.78c-0.21-0.21-0.54-0.36-0.97-0.46l-1.02-0.24
				c-0.63-0.15-1.12-0.42-1.45-0.82c-0.34-0.4-0.5-0.9-0.5-1.49c0-0.71,0.23-1.27,0.7-1.69s1.13-0.62,1.98-0.62
				c0.93,0,1.64,0.22,2.15,0.66c0.5,0.44,0.7,0.99,0.58,1.67l-1.63,0.3c0.14-0.65,0.1-1.16-0.1-1.54c-0.21-0.38-0.56-0.56-1.07-0.56
				c-0.37,0-0.66,0.1-0.87,0.31c-0.22,0.21-0.33,0.49-0.33,0.86c0,0.37,0.1,0.67,0.31,0.93c0.21,0.25,0.49,0.42,0.86,0.51l1.02,0.24
				c0.7,0.17,1.22,0.43,1.56,0.78c0.34,0.35,0.51,0.8,0.51,1.35c0,0.71-0.26,1.27-0.78,1.69c-0.52,0.41-1.23,0.62-2.14,0.62
				c-0.74,0-1.37-0.16-1.88-0.49c-0.51-0.33-0.86-0.8-1.04-1.42l0.96-0.38c0.06,0.57,0.26,1.01,0.6,1.32
				c0.34,0.31,0.79,0.46,1.36,0.46c0.46,0,0.83-0.11,1.1-0.32C155.75,9.29,155.88,9,155.88,8.63z"/>
		</g>
	</g>
</g>
</svg>
