<?xml version="1.0" encoding="utf-8"?>
<!-- Generator: Adobe Illustrator 24.3.0, SVG Export Plug-In . SVG Version: 6.00 Build 0)  -->
<svg version="1.1" id="Layer_1" xmlns="http://www.w3.org/2000/svg" xmlns:xlink="http://www.w3.org/1999/xlink" x="0px" y="0px"
	 viewBox="0 0 246 50" style="enable-background:new 0 0 246 50;" xml:space="preserve">
<style type="text/css">
	.st0{clip-path:url(#SVGID_2_);fill:url(#SVGID_3_);}
	.st1{clip-path:url(#SVGID_5_);fill:url(#SVGID_6_);}
	.st2{clip-path:url(#SVGID_8_);fill:url(#SVGID_9_);}
	.st3{clip-path:url(#SVGID_11_);fill:url(#SVGID_12_);}
	.st4{clip-path:url(#SVGID_14_);fill:url(#SVGID_15_);}
	.st5{clip-path:url(#SVGID_17_);fill:url(#SVGID_18_);}
	.st6{clip-path:url(#SVGID_20_);fill:url(#SVGID_21_);}
	.st7{clip-path:url(#SVGID_23_);fill:url(#SVGID_24_);}
	.st8{clip-path:url(#SVGID_26_);fill:url(#SVGID_27_);}
	.st9{clip-path:url(#SVGID_29_);fill:url(#SVGID_30_);}
	.st10{clip-path:url(#SVGID_32_);fill:url(#SVGID_33_);}
	.st11{clip-path:url(#SVGID_35_);fill:url(#SVGID_36_);}
	.st12{clip-path:url(#SVGID_38_);fill:url(#SVGID_39_);}
	.st13{clip-path:url(#SVGID_41_);fill:url(#SVGID_42_);}
	.st14{clip-path:url(#SVGID_44_);fill:url(#SVGID_45_);}
	.st15{clip-path:url(#SVGID_47_);fill:url(#SVGID_48_);}
	.st16{clip-path:url(#SVGID_50_);fill:url(#SVGID_51_);}
	.st17{clip-path:url(#SVGID_53_);fill:url(#SVGID_54_);}
	.st18{clip-path:url(#SVGID_56_);fill:url(#SVGID_57_);}
	.st19{clip-path:url(#SVGID_59_);fill:url(#SVGID_60_);}
	.st20{clip-path:url(#SVGID_62_);fill:url(#SVGID_63_);}
	.st21{clip-path:url(#SVGID_65_);fill:url(#SVGID_66_);}
	.st22{clip-path:url(#SVGID_68_);fill:url(#SVGID_69_);}
	.st23{clip-path:url(#SVGID_71_);fill:url(#SVGID_72_);}
	.st24{clip-path:url(#SVGID_74_);fill:url(#SVGID_75_);}
	.st25{fill:#5B6DB0;}
	.st26{fill:#655DC6;}
	.st27{fill:url(#SVGID_76_);}
	.st28{fill:url(#SVGID_77_);}
	.st29{fill:url(#SVGID_78_);}
	.st30{fill:url(#SVGID_79_);}
	.st31{fill:url(#SVGID_80_);}
	.st32{fill:url(#SVGID_81_);}
	.st33{fill:url(#SVGID_82_);}
	.st34{fill:url(#SVGID_83_);}
	.st35{fill:url(#SVGID_84_);}
	.st36{fill:url(#SVGID_85_);}
</style>
<g>
	<g>
		<g>
			<defs>
				<polygon id="SVGID_1_" points="4.38,20.24 6.71,22.23 12.37,20.31 13.57,17.13 				"/>
			</defs>
			<clipPath id="SVGID_2_">
				<use xlink:href="#SVGID_1_"  style="overflow:visible;"/>
			</clipPath>
			
				<linearGradient id="SVGID_3_" gradientUnits="userSpaceOnUse" x1="-174.9044" y1="442.7238" x2="-174.7483" y2="442.7238" gradientTransform="matrix(58.915 0 0 -58.915 10308.8701 26102.7539)">
				<stop  offset="0" style="stop-color:#949698"/>
				<stop  offset="0.076" style="stop-color:#878A98"/>
				<stop  offset="0.2729" style="stop-color:#687196"/>
				<stop  offset="0.4674" style="stop-color:#506095"/>
				<stop  offset="0.6562" style="stop-color:#3D5493"/>
				<stop  offset="0.8367" style="stop-color:#314D92"/>
				<stop  offset="1" style="stop-color:#2C4A92"/>
			</linearGradient>
			<rect x="4.38" y="17.13" class="st0" width="9.19" height="5.11"/>
		</g>
		<g>
			<defs>
				<polygon id="SVGID_4_" points="4.4,30.25 13.64,33.27 12.41,30.22 6.7,28.35 				"/>
			</defs>
			<clipPath id="SVGID_5_">
				<use xlink:href="#SVGID_4_"  style="overflow:visible;"/>
			</clipPath>
			
				<linearGradient id="SVGID_6_" gradientUnits="userSpaceOnUse" x1="-174.914" y1="443.7476" x2="-174.758" y2="443.7476" gradientTransform="matrix(59.2422 0 0 -59.2422 10366.6885 26319.3945)">
				<stop  offset="0" style="stop-color:#949698"/>
				<stop  offset="0.076" style="stop-color:#878A98"/>
				<stop  offset="0.2729" style="stop-color:#687196"/>
				<stop  offset="0.4674" style="stop-color:#506095"/>
				<stop  offset="0.6562" style="stop-color:#3D5493"/>
				<stop  offset="0.8367" style="stop-color:#314D92"/>
				<stop  offset="1" style="stop-color:#2C4A92"/>
			</linearGradient>
			<rect x="4.4" y="28.35" class="st1" width="9.24" height="4.91"/>
		</g>
		<g>
			<defs>
				<polygon id="SVGID_7_" points="4.4,30.26 6.72,28.36 6.72,22.18 4.38,20.22 				"/>
			</defs>
			<clipPath id="SVGID_8_">
				<use xlink:href="#SVGID_7_"  style="overflow:visible;"/>
			</clipPath>
			
				<linearGradient id="SVGID_9_" gradientUnits="userSpaceOnUse" x1="-174.6614" y1="436.9031" x2="-174.5054" y2="436.9031" gradientTransform="matrix(15.0303 0 0 -15.0303 2629.5933 6592.0239)">
				<stop  offset="0" style="stop-color:#949698"/>
				<stop  offset="0.076" style="stop-color:#878A98"/>
				<stop  offset="0.2729" style="stop-color:#687196"/>
				<stop  offset="0.4674" style="stop-color:#506095"/>
				<stop  offset="0.6562" style="stop-color:#3D5493"/>
				<stop  offset="0.8367" style="stop-color:#314D92"/>
				<stop  offset="1" style="stop-color:#2C4A92"/>
			</linearGradient>
			<rect x="4.38" y="20.22" class="st2" width="2.34" height="10.04"/>
		</g>
		<g>
			<defs>
				<polygon id="SVGID_10_" points="12.37,30.28 13.64,33.27 21.68,25.36 17.3,25.34 				"/>
			</defs>
			<clipPath id="SVGID_11_">
				<use xlink:href="#SVGID_10_"  style="overflow:visible;"/>
			</clipPath>
			
				<linearGradient id="SVGID_12_" gradientUnits="userSpaceOnUse" x1="-175.6406" y1="443.6189" x2="-175.4846" y2="443.6189" gradientTransform="matrix(59.6729 0 0 -59.6729 10493.3574 26501.332)">
				<stop  offset="0" style="stop-color:#949698"/>
				<stop  offset="0.076" style="stop-color:#878A98"/>
				<stop  offset="0.2729" style="stop-color:#687196"/>
				<stop  offset="0.4674" style="stop-color:#506095"/>
				<stop  offset="0.6562" style="stop-color:#3D5493"/>
				<stop  offset="0.8367" style="stop-color:#314D92"/>
				<stop  offset="1" style="stop-color:#2C4A92"/>
			</linearGradient>
			<rect x="12.37" y="25.34" class="st3" width="9.31" height="7.92"/>
		</g>
		<g>
			<defs>
				<polygon id="SVGID_13_" points="12.33,20.32 17.29,25.36 21.68,25.35 13.57,17.14 				"/>
			</defs>
			<clipPath id="SVGID_14_">
				<use xlink:href="#SVGID_13_"  style="overflow:visible;"/>
			</clipPath>
			
				<linearGradient id="SVGID_15_" gradientUnits="userSpaceOnUse" x1="-175.6168" y1="442.9136" x2="-175.4608" y2="442.9136" gradientTransform="matrix(59.9941 0 0 -59.9941 10548.2988 26593.4492)">
				<stop  offset="0" style="stop-color:#949698"/>
				<stop  offset="0.076" style="stop-color:#878A98"/>
				<stop  offset="0.2729" style="stop-color:#687196"/>
				<stop  offset="0.4674" style="stop-color:#506095"/>
				<stop  offset="0.6562" style="stop-color:#3D5493"/>
				<stop  offset="0.8367" style="stop-color:#314D92"/>
				<stop  offset="1" style="stop-color:#2C4A92"/>
			</linearGradient>
			<rect x="12.33" y="17.14" class="st4" width="9.36" height="8.22"/>
		</g>
		<g>
			<defs>
				<polygon id="SVGID_16_" points="19.52,4.25 21.44,6.6 27.73,6.6 29.72,4.22 				"/>
			</defs>
			<clipPath id="SVGID_17_">
				<use xlink:href="#SVGID_16_"  style="overflow:visible;"/>
			</clipPath>
			
				<linearGradient id="SVGID_18_" gradientUnits="userSpaceOnUse" x1="-176.1707" y1="441.8032" x2="-176.0147" y2="441.8032" gradientTransform="matrix(65.3955 0 0 -65.3955 11540.293 28897.3555)">
				<stop  offset="0" style="stop-color:#B8BABB"/>
				<stop  offset="0.2311" style="stop-color:#9DAFBF"/>
				<stop  offset="0.5511" style="stop-color:#7DA3C3"/>
				<stop  offset="0.8189" style="stop-color:#699CC5"/>
				<stop  offset="1" style="stop-color:#609AC6"/>
			</linearGradient>
			<rect x="19.52" y="4.22" class="st5" width="10.2" height="2.38"/>
		</g>
		<g>
			<defs>
				<polygon id="SVGID_19_" points="27.68,6.58 29.64,12.33 32.86,13.56 29.7,4.22 				"/>
			</defs>
			<clipPath id="SVGID_20_">
				<use xlink:href="#SVGID_19_"  style="overflow:visible;"/>
			</clipPath>
			
				<linearGradient id="SVGID_21_" gradientUnits="userSpaceOnUse" x1="-178.6383" y1="438.8943" x2="-178.4822" y2="438.8943" gradientTransform="matrix(33.2471 0 0 -33.2471 5966.8809 14600.8525)">
				<stop  offset="0" style="stop-color:#B8BABB"/>
				<stop  offset="0.2311" style="stop-color:#9DAFBF"/>
				<stop  offset="0.5511" style="stop-color:#7DA3C3"/>
				<stop  offset="0.8189" style="stop-color:#699CC5"/>
				<stop  offset="1" style="stop-color:#609AC6"/>
			</linearGradient>
			<rect x="27.68" y="4.22" class="st6" width="5.19" height="9.34"/>
		</g>
		<g>
			<defs>
				<polygon id="SVGID_22_" points="16.47,13.63 19.56,12.37 21.46,6.57 19.54,4.24 				"/>
			</defs>
			<clipPath id="SVGID_23_">
				<use xlink:href="#SVGID_22_"  style="overflow:visible;"/>
			</clipPath>
			
				<linearGradient id="SVGID_24_" gradientUnits="userSpaceOnUse" x1="-176.8854" y1="438.6457" x2="-176.7295" y2="438.6457" gradientTransform="matrix(31.9971 0 0 -31.9971 5676.2866 14044.3223)">
				<stop  offset="0" style="stop-color:#B8BABB"/>
				<stop  offset="0.2311" style="stop-color:#9DAFBF"/>
				<stop  offset="0.5511" style="stop-color:#7DA3C3"/>
				<stop  offset="0.8189" style="stop-color:#699CC5"/>
				<stop  offset="1" style="stop-color:#609AC6"/>
			</linearGradient>
			<rect x="16.47" y="4.24" class="st7" width="4.99" height="9.39"/>
		</g>
		<g>
			<defs>
				<polygon id="SVGID_25_" points="16.48,13.62 24.52,21.79 24.52,17.33 19.52,12.32 				"/>
			</defs>
			<clipPath id="SVGID_26_">
				<use xlink:href="#SVGID_25_"  style="overflow:visible;"/>
			</clipPath>
			
				<linearGradient id="SVGID_27_" gradientUnits="userSpaceOnUse" x1="-176.1593" y1="442.0712" x2="-176.0033" y2="442.0712" gradientTransform="matrix(51.6025 0 0 -51.6025 9106.7363 22829.0332)">
				<stop  offset="0" style="stop-color:#B8BABB"/>
				<stop  offset="0.2311" style="stop-color:#9DAFBF"/>
				<stop  offset="0.5511" style="stop-color:#7DA3C3"/>
				<stop  offset="0.8189" style="stop-color:#699CC5"/>
				<stop  offset="1" style="stop-color:#609AC6"/>
			</linearGradient>
			<rect x="16.48" y="12.32" class="st8" width="8.05" height="9.46"/>
		</g>
		<g>
			<defs>
				<polygon id="SVGID_28_" points="24.5,17.34 24.51,21.8 32.85,13.56 29.63,12.29 				"/>
			</defs>
			<clipPath id="SVGID_29_">
				<use xlink:href="#SVGID_28_"  style="overflow:visible;"/>
			</clipPath>
			
				<linearGradient id="SVGID_30_" gradientUnits="userSpaceOnUse" x1="-176.9406" y1="442.1828" x2="-176.7846" y2="442.1828" gradientTransform="matrix(53.5352 0 0 -53.5352 9497.0508 23689.3887)">
				<stop  offset="0" style="stop-color:#B8BABB"/>
				<stop  offset="0.2311" style="stop-color:#9DAFBF"/>
				<stop  offset="0.5511" style="stop-color:#7DA3C3"/>
				<stop  offset="0.8189" style="stop-color:#699CC5"/>
				<stop  offset="1" style="stop-color:#609AC6"/>
			</linearGradient>
			<rect x="24.5" y="12.29" class="st9" width="8.35" height="9.51"/>
		</g>
		<g>
			<defs>
				<polygon id="SVGID_31_" points="18.46,2.91 20.84,5.83 28.61,5.82 31.07,2.88 				"/>
			</defs>
			<clipPath id="SVGID_32_">
				<use xlink:href="#SVGID_31_"  style="overflow:visible;"/>
			</clipPath>
			
				<linearGradient id="SVGID_33_" gradientUnits="userSpaceOnUse" x1="-175.877" y1="442.4172" x2="-175.721" y2="442.4172" gradientTransform="matrix(80.8711 0 0 -80.8711 14241.8291 35783.1172)">
				<stop  offset="0" style="stop-color:#A3C6DA"/>
				<stop  offset="0.9482" style="stop-color:#8BC7E8"/>
				<stop  offset="1" style="stop-color:#8AC7E9"/>
			</linearGradient>
			<rect x="18.46" y="2.88" class="st10" width="12.62" height="2.94"/>
		</g>
		<g>
			<defs>
				<polygon id="SVGID_34_" points="16.11,36.58 19.39,37.86 24.6,32.74 24.6,28.2 				"/>
			</defs>
			<clipPath id="SVGID_35_">
				<use xlink:href="#SVGID_34_"  style="overflow:visible;"/>
			</clipPath>
			
				<linearGradient id="SVGID_36_" gradientUnits="userSpaceOnUse" x1="-176.0634" y1="443.832" x2="-175.9074" y2="443.832" gradientTransform="matrix(54.4277 0 0 -54.4277 9598.834 24189.7871)">
				<stop  offset="0" style="stop-color:#C8C8C7"/>
				<stop  offset="8.904517e-03" style="stop-color:#CAC3BF"/>
				<stop  offset="0.058" style="stop-color:#D2AC99"/>
				<stop  offset="0.1129" style="stop-color:#D7977A"/>
				<stop  offset="0.1723" style="stop-color:#DB8562"/>
				<stop  offset="0.2376" style="stop-color:#DE764D"/>
				<stop  offset="0.3107" style="stop-color:#E0693C"/>
				<stop  offset="0.3954" style="stop-color:#E25E31"/>
				<stop  offset="0.4986" style="stop-color:#E35629"/>
				<stop  offset="0.6403" style="stop-color:#E35026"/>
				<stop  offset="1" style="stop-color:#E44F25"/>
			</linearGradient>
			<rect x="16.11" y="28.2" class="st11" width="8.49" height="9.66"/>
		</g>
		<g>
			<defs>
				<polygon id="SVGID_37_" points="24.58,32.74 29.66,37.83 32.76,36.52 24.59,28.21 				"/>
			</defs>
			<clipPath id="SVGID_38_">
				<use xlink:href="#SVGID_37_"  style="overflow:visible;"/>
			</clipPath>
			
				<linearGradient id="SVGID_39_" gradientUnits="userSpaceOnUse" x1="-176.9799" y1="443.7691" x2="-176.8239" y2="443.7691" gradientTransform="matrix(52.4619 0 0 -52.4619 9309.2812 23313.9941)">
				<stop  offset="0" style="stop-color:#C8C8C7"/>
				<stop  offset="8.904517e-03" style="stop-color:#CAC3BF"/>
				<stop  offset="0.058" style="stop-color:#D2AC99"/>
				<stop  offset="0.1129" style="stop-color:#D7977A"/>
				<stop  offset="0.1723" style="stop-color:#DB8562"/>
				<stop  offset="0.2376" style="stop-color:#DE764D"/>
				<stop  offset="0.3107" style="stop-color:#E0693C"/>
				<stop  offset="0.3954" style="stop-color:#E25E31"/>
				<stop  offset="0.4986" style="stop-color:#E35629"/>
				<stop  offset="0.6403" style="stop-color:#E35026"/>
				<stop  offset="1" style="stop-color:#E44F25"/>
			</linearGradient>
			<rect x="24.58" y="28.21" class="st12" width="8.18" height="9.61"/>
		</g>
		<g>
			<defs>
				<polygon id="SVGID_40_" points="29.63,37.78 27.69,43.68 29.65,46.06 32.77,36.51 				"/>
			</defs>
			<clipPath id="SVGID_41_">
				<use xlink:href="#SVGID_40_"  style="overflow:visible;"/>
			</clipPath>
			
				<linearGradient id="SVGID_42_" gradientUnits="userSpaceOnUse" x1="-178.7171" y1="444.1442" x2="-178.5611" y2="444.1442" gradientTransform="matrix(32.5381 0 0 -32.5381 5842.8096 14492.8916)">
				<stop  offset="0" style="stop-color:#C8C8C7"/>
				<stop  offset="8.904517e-03" style="stop-color:#CAC3BF"/>
				<stop  offset="0.058" style="stop-color:#D2AC99"/>
				<stop  offset="0.1129" style="stop-color:#D7977A"/>
				<stop  offset="0.1723" style="stop-color:#DB8562"/>
				<stop  offset="0.2376" style="stop-color:#DE764D"/>
				<stop  offset="0.3107" style="stop-color:#E0693C"/>
				<stop  offset="0.3954" style="stop-color:#E25E31"/>
				<stop  offset="0.4986" style="stop-color:#E35629"/>
				<stop  offset="0.6403" style="stop-color:#E35026"/>
				<stop  offset="1" style="stop-color:#E44F25"/>
			</linearGradient>
			<rect x="27.69" y="36.51" class="st13" width="5.08" height="9.55"/>
		</g>
		<g>
			<defs>
				<polygon id="SVGID_43_" points="21.32,43.65 19.29,46.07 29.67,46.05 27.71,43.65 				"/>
			</defs>
			<clipPath id="SVGID_44_">
				<use xlink:href="#SVGID_43_"  style="overflow:visible;"/>
			</clipPath>
			
				<linearGradient id="SVGID_45_" gradientUnits="userSpaceOnUse" x1="-176.1312" y1="445.0745" x2="-175.9752" y2="445.0745" gradientTransform="matrix(66.5117 0 0 -66.5117 11734.0752 29647.5234)">
				<stop  offset="0" style="stop-color:#C8C8C7"/>
				<stop  offset="8.904517e-03" style="stop-color:#CAC3BF"/>
				<stop  offset="0.058" style="stop-color:#D2AC99"/>
				<stop  offset="0.1129" style="stop-color:#D7977A"/>
				<stop  offset="0.1723" style="stop-color:#DB8562"/>
				<stop  offset="0.2376" style="stop-color:#DE764D"/>
				<stop  offset="0.3107" style="stop-color:#E0693C"/>
				<stop  offset="0.3954" style="stop-color:#E25E31"/>
				<stop  offset="0.4986" style="stop-color:#E35629"/>
				<stop  offset="0.6403" style="stop-color:#E35026"/>
				<stop  offset="1" style="stop-color:#E44F25"/>
			</linearGradient>
			<rect x="19.29" y="43.65" class="st14" width="10.38" height="2.42"/>
		</g>
		<g>
			<defs>
				<polygon id="SVGID_46_" points="19.31,46.07 21.37,43.67 19.38,37.83 16.1,36.58 				"/>
			</defs>
			<clipPath id="SVGID_47_">
				<use xlink:href="#SVGID_46_"  style="overflow:visible;"/>
			</clipPath>
			
				<linearGradient id="SVGID_48_" gradientUnits="userSpaceOnUse" x1="-176.721" y1="444.1952" x2="-176.565" y2="444.1952" gradientTransform="matrix(33.8047 0 0 -33.8047 5990.0977 15057.2129)">
				<stop  offset="0" style="stop-color:#C8C8C7"/>
				<stop  offset="8.904517e-03" style="stop-color:#CAC3BF"/>
				<stop  offset="0.058" style="stop-color:#D2AC99"/>
				<stop  offset="0.1129" style="stop-color:#D7977A"/>
				<stop  offset="0.1723" style="stop-color:#DB8562"/>
				<stop  offset="0.2376" style="stop-color:#DE764D"/>
				<stop  offset="0.3107" style="stop-color:#E0693C"/>
				<stop  offset="0.3954" style="stop-color:#E25E31"/>
				<stop  offset="0.4986" style="stop-color:#E35629"/>
				<stop  offset="0.6403" style="stop-color:#E35026"/>
				<stop  offset="1" style="stop-color:#E44F25"/>
			</linearGradient>
			<rect x="16.1" y="36.58" class="st15" width="5.27" height="9.49"/>
		</g>
		<g>
			<defs>
				<polygon id="SVGID_49_" points="27.39,25.36 35.66,33.73 36.92,30.5 31.87,25.36 				"/>
			</defs>
			<clipPath id="SVGID_50_">
				<use xlink:href="#SVGID_49_"  style="overflow:visible;"/>
			</clipPath>
			
				<linearGradient id="SVGID_51_" gradientUnits="userSpaceOnUse" x1="-176.9474" y1="443.6907" x2="-176.7914" y2="443.6907" gradientTransform="matrix(61.0947 0 0 -61.0947 10837.9395 27136.7031)">
				<stop  offset="0" style="stop-color:#B8B9BC"/>
				<stop  offset="0.0336" style="stop-color:#ACB3AE"/>
				<stop  offset="0.0992" style="stop-color:#99AA98"/>
				<stop  offset="0.1728" style="stop-color:#8AA487"/>
				<stop  offset="0.2549" style="stop-color:#7E9F79"/>
				<stop  offset="0.3496" style="stop-color:#749B6F"/>
				<stop  offset="0.4643" style="stop-color:#6D9967"/>
				<stop  offset="0.6201" style="stop-color:#699863"/>
				<stop  offset="1" style="stop-color:#689761"/>
			</linearGradient>
			<rect x="27.39" y="25.36" class="st16" width="9.53" height="8.37"/>
		</g>
		<g>
			<defs>
				<polygon id="SVGID_52_" points="27.41,25.37 31.88,25.38 36.89,20.37 35.6,17.31 				"/>
			</defs>
			<clipPath id="SVGID_53_">
				<use xlink:href="#SVGID_52_"  style="overflow:visible;"/>
			</clipPath>
			
				<linearGradient id="SVGID_54_" gradientUnits="userSpaceOnUse" x1="-176.9673" y1="442.9418" x2="-176.8113" y2="442.9418" gradientTransform="matrix(60.7686 0 0 -60.7686 10781.4648 26938.2988)">
				<stop  offset="0" style="stop-color:#B8B9BC"/>
				<stop  offset="0.0336" style="stop-color:#ACB3AE"/>
				<stop  offset="0.0992" style="stop-color:#99AA98"/>
				<stop  offset="0.1728" style="stop-color:#8AA487"/>
				<stop  offset="0.2549" style="stop-color:#7E9F79"/>
				<stop  offset="0.3496" style="stop-color:#749B6F"/>
				<stop  offset="0.4643" style="stop-color:#6D9967"/>
				<stop  offset="0.6201" style="stop-color:#699863"/>
				<stop  offset="1" style="stop-color:#689761"/>
			</linearGradient>
			<rect x="27.41" y="17.31" class="st17" width="9.48" height="8.08"/>
		</g>
		<g>
			<defs>
				<polygon id="SVGID_55_" points="36.85,20.4 42.5,22.31 44.85,20.38 35.59,17.3 				"/>
			</defs>
			<clipPath id="SVGID_56_">
				<use xlink:href="#SVGID_55_"  style="overflow:visible;"/>
			</clipPath>
			
				<linearGradient id="SVGID_57_" gradientUnits="userSpaceOnUse" x1="-177.7595" y1="442.7436" x2="-177.6036" y2="442.7436" gradientTransform="matrix(59.3389 0 0 -59.3389 10583.6455 26291.7246)">
				<stop  offset="0" style="stop-color:#B8B9BC"/>
				<stop  offset="0.0336" style="stop-color:#ACB3AE"/>
				<stop  offset="0.0992" style="stop-color:#99AA98"/>
				<stop  offset="0.1728" style="stop-color:#8AA487"/>
				<stop  offset="0.2549" style="stop-color:#7E9F79"/>
				<stop  offset="0.3496" style="stop-color:#749B6F"/>
				<stop  offset="0.4643" style="stop-color:#6D9967"/>
				<stop  offset="0.6201" style="stop-color:#699863"/>
				<stop  offset="1" style="stop-color:#689761"/>
			</linearGradient>
			<rect x="35.59" y="17.3" class="st18" width="9.26" height="5.01"/>
		</g>
		<g>
			<defs>
				<polygon id="SVGID_58_" points="42.47,22.29 42.47,28.6 44.86,30.6 44.84,20.37 				"/>
			</defs>
			<clipPath id="SVGID_59_">
				<use xlink:href="#SVGID_58_"  style="overflow:visible;"/>
			</clipPath>
			
				<linearGradient id="SVGID_60_" gradientUnits="userSpaceOnUse" x1="-188.1329" y1="437.1425" x2="-187.977" y2="437.1425" gradientTransform="matrix(15.3008 0 0 -15.3008 2921.0576 6714.1108)">
				<stop  offset="0" style="stop-color:#B8B9BC"/>
				<stop  offset="0.0336" style="stop-color:#ACB3AE"/>
				<stop  offset="0.0992" style="stop-color:#99AA98"/>
				<stop  offset="0.1728" style="stop-color:#8AA487"/>
				<stop  offset="0.2549" style="stop-color:#7E9F79"/>
				<stop  offset="0.3496" style="stop-color:#749B6F"/>
				<stop  offset="0.4643" style="stop-color:#6D9967"/>
				<stop  offset="0.6201" style="stop-color:#699863"/>
				<stop  offset="1" style="stop-color:#689761"/>
			</linearGradient>
			<rect x="42.47" y="20.37" class="st19" width="2.39" height="10.23"/>
		</g>
		<g>
			<defs>
				<polygon id="SVGID_61_" points="36.88,30.5 35.66,33.74 44.86,30.57 42.49,28.55 				"/>
			</defs>
			<clipPath id="SVGID_62_">
				<use xlink:href="#SVGID_61_"  style="overflow:visible;"/>
			</clipPath>
			
				<linearGradient id="SVGID_63_" gradientUnits="userSpaceOnUse" x1="-177.7768" y1="443.7738" x2="-177.6208" y2="443.7738" gradientTransform="matrix(58.9746 0 0 -58.9746 10519.9727 26202.5293)">
				<stop  offset="0" style="stop-color:#B8B9BC"/>
				<stop  offset="0.0336" style="stop-color:#ACB3AE"/>
				<stop  offset="0.0992" style="stop-color:#99AA98"/>
				<stop  offset="0.1728" style="stop-color:#8AA487"/>
				<stop  offset="0.2549" style="stop-color:#7E9F79"/>
				<stop  offset="0.3496" style="stop-color:#749B6F"/>
				<stop  offset="0.4643" style="stop-color:#6D9967"/>
				<stop  offset="0.6201" style="stop-color:#699863"/>
				<stop  offset="1" style="stop-color:#689761"/>
			</linearGradient>
			<rect x="35.66" y="28.55" class="st20" width="9.2" height="5.2"/>
		</g>
		<g>
			<defs>
				<polygon id="SVGID_64_" points="28.55,5.8 30.97,12.91 34.96,14.43 31.05,2.88 				"/>
			</defs>
			<clipPath id="SVGID_65_">
				<use xlink:href="#SVGID_64_"  style="overflow:visible;"/>
			</clipPath>
			
				<linearGradient id="SVGID_66_" gradientUnits="userSpaceOnUse" x1="-178.0548" y1="440.106" x2="-177.8987" y2="440.106" gradientTransform="matrix(41.1133 0 0 -41.1133 7348.9653 18102.8652)">
				<stop  offset="0" style="stop-color:#A3C6DA"/>
				<stop  offset="0.9482" style="stop-color:#8BC7E8"/>
				<stop  offset="1" style="stop-color:#8AC7E9"/>
			</linearGradient>
			<rect x="28.55" y="2.88" class="st21" width="6.42" height="11.54"/>
		</g>
		<g>
			<defs>
				<polygon id="SVGID_67_" points="24.62,19.1 24.62,24.62 34.95,14.43 30.96,12.87 				"/>
			</defs>
			<clipPath id="SVGID_68_">
				<use xlink:href="#SVGID_67_"  style="overflow:visible;"/>
			</clipPath>
			
				<linearGradient id="SVGID_69_" gradientUnits="userSpaceOnUse" x1="-176.5675" y1="442.936" x2="-176.4115" y2="442.936" gradientTransform="matrix(66.2041 0 0 -66.2041 11714.1084 29342.9238)">
				<stop  offset="0" style="stop-color:#A3C6DA"/>
				<stop  offset="0.9482" style="stop-color:#8BC7E8"/>
				<stop  offset="1" style="stop-color:#8AC7E9"/>
			</linearGradient>
			<rect x="24.62" y="12.87" class="st22" width="10.33" height="11.75"/>
		</g>
		<g>
			<defs>
				<polygon id="SVGID_70_" points="14.68,14.51 18.51,12.96 20.86,5.79 18.48,2.9 				"/>
			</defs>
			<clipPath id="SVGID_71_">
				<use xlink:href="#SVGID_70_"  style="overflow:visible;"/>
			</clipPath>
			
				<linearGradient id="SVGID_72_" gradientUnits="userSpaceOnUse" x1="-176.2827" y1="439.9028" x2="-176.1268" y2="439.9028" gradientTransform="matrix(39.5684 0 0 -39.5684 6989.9092 17414.957)">
				<stop  offset="0" style="stop-color:#A3C6DA"/>
				<stop  offset="0.9482" style="stop-color:#8BC7E8"/>
				<stop  offset="1" style="stop-color:#8AC7E9"/>
			</linearGradient>
			<rect x="14.68" y="2.9" class="st23" width="6.17" height="11.61"/>
		</g>
		<g>
			<defs>
				<polygon id="SVGID_73_" points="14.69,14.5 24.64,24.6 24.65,19.09 18.46,12.9 				"/>
			</defs>
			<clipPath id="SVGID_74_">
				<use xlink:href="#SVGID_73_"  style="overflow:visible;"/>
			</clipPath>
			
				<linearGradient id="SVGID_75_" gradientUnits="userSpaceOnUse" x1="-175.7922" y1="442.8386" x2="-175.6362" y2="442.8386" gradientTransform="matrix(63.8145 0 0 -63.8145 11232.7852 28278.2793)">
				<stop  offset="0" style="stop-color:#A3C6DA"/>
				<stop  offset="0.9482" style="stop-color:#8BC7E8"/>
				<stop  offset="1" style="stop-color:#8AC7E9"/>
			</linearGradient>
			<rect x="14.69" y="12.9" class="st24" width="9.95" height="11.7"/>
		</g>
		<g>
			<polygon class="st25" points="12.63,31.27 14.12,34.95 2.96,31.3 5.73,29.01 			"/>
			<polygon class="st26" points="5.77,29.02 2.96,31.32 2.93,19.18 5.76,21.56 			"/>
			<polygon class="st26" points="12.53,19.3 14.03,15.46 23.84,25.38 18.53,25.39 			"/>
			<polygon class="st25" points="18.52,25.36 23.82,25.38 14.11,34.94 12.57,31.32 			"/>
			<polygon class="st26" points="5.74,21.62 2.93,19.21 14.03,15.45 12.58,19.29 			"/>
			<radialGradient id="SVGID_76_" cx="31.0409" cy="30.3499" r="5.3194" gradientUnits="userSpaceOnUse">
				<stop  offset="0" style="stop-color:#82C679"/>
				<stop  offset="1" style="stop-color:#62BC5C"/>
			</radialGradient>
			<polygon class="st27" points="36.69,31.47 35.19,35.31 25.39,25.39 30.7,25.39 			"/>
			<radialGradient id="SVGID_77_" cx="31.0319" cy="20.6223" r="5.2228" gradientUnits="userSpaceOnUse">
				<stop  offset="0" style="stop-color:#82C679"/>
				<stop  offset="0.4114" style="stop-color:#78C36F"/>
				<stop  offset="1" style="stop-color:#62BC5C"/>
			</radialGradient>
			<polygon class="st28" points="30.71,25.41 25.41,25.4 35.12,15.83 36.66,19.46 			"/>
			<radialGradient id="SVGID_78_" cx="40.692" cy="18.7951" r="4.4696" gradientUnits="userSpaceOnUse">
				<stop  offset="0" style="stop-color:#82C679"/>
				<stop  offset="0.4114" style="stop-color:#78C36F"/>
				<stop  offset="1" style="stop-color:#62BC5C"/>
			</radialGradient>
			<polygon class="st29" points="36.6,19.5 35.11,15.83 46.27,19.47 43.34,21.76 			"/>
			<radialGradient id="SVGID_79_" cx="44.7866" cy="25.5213" r="4.4148" gradientUnits="userSpaceOnUse">
				<stop  offset="0" style="stop-color:#82C679"/>
				<stop  offset="1" style="stop-color:#62BC5C"/>
			</radialGradient>
			<polygon class="st30" points="43.3,21.74 46.27,19.46 46.13,31.59 43.31,29.22 			"/>
			<radialGradient id="SVGID_80_" cx="40.6634" cy="32.2421" r="4.44" gradientUnits="userSpaceOnUse">
				<stop  offset="0" style="stop-color:#82C679"/>
				<stop  offset="1" style="stop-color:#62BC5C"/>
			</radialGradient>
			<polygon class="st31" points="43.33,29.16 46.13,31.56 35.19,35.32 36.65,31.48 			"/>
		</g>
		<g>
			<radialGradient id="SVGID_81_" cx="19.6612" cy="31.8701" r="5.3199" gradientUnits="userSpaceOnUse">
				<stop  offset="0" style="stop-color:#F37049"/>
				<stop  offset="1" style="stop-color:#EF5E32"/>
			</radialGradient>
			<polygon class="st32" points="18.54,37.52 14.7,36.02 24.62,26.22 24.63,31.53 			"/>
			<radialGradient id="SVGID_82_" cx="29.3902" cy="31.8575" r="5.2205" gradientUnits="userSpaceOnUse">
				<stop  offset="0" style="stop-color:#F37049"/>
				<stop  offset="1" style="stop-color:#EF5E32"/>
			</radialGradient>
			<polygon class="st33" points="24.6,31.53 24.62,26.24 34.18,35.95 30.55,37.48 			"/>
			<radialGradient id="SVGID_83_" cx="31.2158" cy="41.5185" r="4.4714" gradientUnits="userSpaceOnUse">
				<stop  offset="0" style="stop-color:#F37049"/>
				<stop  offset="1" style="stop-color:#EF5E32"/>
			</radialGradient>
			<polygon class="st34" points="30.51,37.43 34.18,35.93 30.53,47.1 28.25,44.32 			"/>
			<radialGradient id="SVGID_84_" cx="24.4884" cy="45.7039" r="4.4052" gradientUnits="userSpaceOnUse">
				<stop  offset="0" style="stop-color:#F37049"/>
				<stop  offset="1" style="stop-color:#EF5E32"/>
			</radialGradient>
			<polygon class="st35" points="28.26,44.29 30.56,47.09 18.42,47.12 20.79,44.29 			"/>
			<radialGradient id="SVGID_85_" cx="17.7696" cy="41.5698" r="4.4878" gradientUnits="userSpaceOnUse">
				<stop  offset="0" style="stop-color:#F37049"/>
				<stop  offset="1" style="stop-color:#EF5E32"/>
			</radialGradient>
			<polygon class="st36" points="20.85,44.31 18.44,47.12 14.69,36.02 18.53,37.48 			"/>
		</g>
	</g>
	<g>
		<g>
			<g>
				<path d="M113.03,13.9l7.17-6.59l0.86,0.79l-4.97,5.8h10.04v4.23h6.69v-1.18c0-1.08-1.15-1.76-1.15-1.76l3.92-1.68v7.48H111.2
					c-0.45,2.11-1.78,4.08-3.94,4.08c-2.7,0-3.14-1.53-3.14-1.53c3.96,0.87,4.82-2.36,4.59-4.02c-0.24-1.78-1.8-1.77-1.8-1.77
					l2-3.15c0,0,1.71,1.52,2.27,3.54h12.36v-1.38h-9.47L113.03,13.9z"/>
				<path d="M128.79,23.73c0-0.7,0.57-1.28,1.25-1.28c0.69,0,1.25,0.58,1.25,1.28c0,0.71-0.56,1.29-1.25,1.29
					C129.36,25.02,128.79,24.44,128.79,23.73z"/>
				<path d="M133,23.73c0-0.7,0.56-1.28,1.25-1.28c0.69,0,1.24,0.58,1.24,1.28c0,0.71-0.55,1.29-1.24,1.29
					C133.57,25.02,133,24.44,133,23.73z"/>
			</g>
			<g>
				<path d="M62.75,11.49c0-0.71,0.56-1.28,1.24-1.28c0.69,0,1.24,0.58,1.24,1.28c0,0.71-0.55,1.28-1.24,1.28
					C63.31,12.78,62.75,12.2,62.75,11.49z"/>
				<path d="M66.66,11.49c0-0.71,0.56-1.28,1.24-1.28c0.69,0,1.25,0.58,1.25,1.28c0,0.71-0.56,1.28-1.25,1.28
					C67.22,12.78,66.66,12.2,66.66,11.49z"/>
				<path d="M76.52,11.49c0-0.71,0.56-1.28,1.25-1.28c0.68,0,1.24,0.58,1.24,1.28c0,0.71-0.56,1.28-1.24,1.28
					C77.07,12.78,76.52,12.2,76.52,11.49z"/>
				<path d="M90.31,14.82l2.97-1.16l0.4-0.16l0.01,7.48H59.58c-0.45,2.11-1.78,4.08-3.94,4.08c-2.7,0-3.14-1.53-3.14-1.53
					c3.96,0.87,4.81-2.36,4.58-4.02c-0.24-1.78-1.8-1.77-1.8-1.77l2.01-3.15c0,0,1.7,1.52,2.27,3.54h6.93v-1.68
					c0-0.83-0.6-1.62-0.6-1.62l3.37-1.32v4.62h7.12v-1.68c0-0.83-0.6-1.62-0.6-1.62l3.37-1.32v4.62h2.68v-1.68
					c0-0.83-0.6-1.62-0.6-1.62l3.38-1.32v4.62h1.77v-1.68c0-0.83-0.61-1.62-0.61-1.62l3.37-1.32v4.62h1.77v-1.81
					c-0.01-0.22-0.07-0.45-0.15-0.65c-0.14-0.36-0.35-0.68-0.42-0.79L90.31,14.82z"/>
			</g>
			<path d="M97.82,17.41c0,0,0.35-1.83,1.12-1.83c1,0,1,1.83,1,1.83H97.82z M98.76,24.97c3.86,0,3.99-4.36,3.99-5.52
				c0-1.85-1.42-5.16-3.03-5.16c-1.45,0-3.48,2.48-3.48,5.53v1.13h3.73v0.66c-0.22,2.54-4.18,1.83-4.18,1.83
				S96.82,24.97,98.76,24.97z"/>
			<path d="M145.92,16.68c0.62,0,1.13,1.22,1.13,1.63c0,0.7-0.51,1.27-1.13,1.27c-0.63,0-1.14-0.57-1.14-1.27
				C144.79,17.84,145.29,16.68,145.92,16.68z M141.61,18.12V7.21l-3.92,1.67c0,0,1.15,0.69,1.15,1.77v10.34h4.13
				c0.56,1.44,1.87,2.45,3.38,2.45c2.03,0,3.68-1.83,3.68-4.08c0-1.91-1.65-4.37-3.68-4.37c-1.62,0-2.98,1.54-3.48,3.14H141.61z"/>
		</g>
		<g>
			<g>
				<g>
					<path d="M193.99,45.22c-0.48,0.31-0.94,0.51-1.4,0.61c-0.46,0.1-1.08,0.14-1.85,0.14c-2.1,0-3.73-0.69-4.86-2.07
						c-0.93-1.12-1.39-2.46-1.39-4.01c0-1.51,0.47-2.83,1.4-3.96c1.08-1.31,2.52-1.96,4.34-1.96h3.77v2.7h-2.59
						c-1.3,0-2.23,0.38-2.81,1.15c-0.43,0.57-0.65,1.32-0.65,2.23c0,0.77,0.26,1.47,0.78,2.1c0.63,0.77,1.45,1.15,2.47,1.15
						c0.64,0,1.22-0.16,1.74-0.49c0.24-0.15,0.59-0.45,1.05-0.91V45.22z M193.99,41.27h-3.47v-2.6h3.47V41.27z"/>
					<path d="M204.93,36.88c0,0.69-0.13,1.26-0.39,1.72c-0.3,0.51-0.88,0.98-1.75,1.41c0.68,0.44,1.12,0.83,1.32,1.16
						c0.27,0.45,0.41,1.15,0.41,2.12v2.66h-3.15v-2.63c0-0.63-0.16-1.13-0.48-1.5c-0.32-0.36-0.78-0.55-1.38-0.55h-3.3v-2.63h3.22
						h0.31c0.5,0,0.86-0.04,1.08-0.12c0.37-0.13,0.55-0.39,0.55-0.78c0-0.44-0.2-0.74-0.61-0.9c-0.26-0.11-0.69-0.16-1.28-0.16h-3.3
						v-2.66h3.33c2.07,0,3.56,0.33,4.46,0.99C204.61,35.49,204.93,36.11,204.93,36.88z"/>
					<path d="M219.79,39.94c0,1.69-0.62,3.14-1.86,4.33c-1.24,1.2-2.73,1.79-4.48,1.79c-1.75,0-3.24-0.59-4.48-1.78
						c-1.24-1.19-1.86-2.64-1.86-4.34c0-1.68,0.62-3.12,1.86-4.32c1.24-1.2,2.74-1.8,4.48-1.8c1.74,0,3.24,0.6,4.48,1.79
						C219.17,36.8,219.79,38.24,219.79,39.94z M216.27,40.04c0-0.93-0.28-1.73-0.86-2.38c-0.57-0.65-1.27-0.98-2.08-0.98
						c-0.8,0-1.49,0.33-2.06,0.98c-0.57,0.65-0.86,1.45-0.86,2.38c0,0.92,0.29,1.71,0.86,2.37c0.57,0.66,1.26,0.99,2.06,0.99
						c0.81,0,1.5-0.33,2.08-0.99C215.99,41.75,216.27,40.96,216.27,40.04z"/>
					<path d="M231.92,45.92h-6.27c-1.16,0-2.05-0.26-2.66-0.77c-0.57-0.48-0.86-1.12-0.86-1.94v-9.19h3.28v7.25
						c0,0.73,0.11,1.22,0.34,1.48c0.29,0.32,0.88,0.49,1.77,0.49h1.09v-9.22h3.31V45.92z"/>
					<path d="M242.93,37.71c0,1.1-0.33,1.93-0.98,2.49c-0.85,0.73-2.35,1.1-4.47,1.1v4.63h-3.3v-7.29h3.25h0.3
						c0.5,0,0.86-0.04,1.08-0.12c0.37-0.13,0.56-0.39,0.56-0.78c0-0.44-0.2-0.74-0.6-0.9c-0.26-0.11-0.68-0.16-1.27-0.16h-3.33v-2.7
						l3.33,0.04c2.12,0,3.61,0.38,4.45,1.14C242.6,35.74,242.93,36.59,242.93,37.71z"/>
				</g>
			</g>
			<rect x="191.68" y="40.87" width="2.32" height="3.04"/>
			<g>
				<g>
					<path d="M68.98,45.69h-3.25v-7.31c0-0.72-0.12-1.21-0.36-1.47c-0.3-0.33-0.89-0.49-1.79-0.49h-4.65v9.27h-3.3V33.72h9.83
						c1.17,0,2.06,0.26,2.67,0.77c0.56,0.48,0.84,1.13,0.84,1.95V45.69z M63.94,45.69h-3.08V38.4h3.08V45.69z"/>
					<path d="M85.05,45.69c-2.91,0-5-0.57-6.28-1.72c-1.08-0.97-1.63-2.41-1.63-4.3c0-1.81,0.56-3.21,1.67-4.2
						c1.31-1.16,3.39-1.75,6.24-1.75v2.7c-1.04,0-1.78,0.04-2.22,0.12c-0.78,0.14-1.36,0.43-1.75,0.86
						c-0.46,0.51-0.69,1.28-0.69,2.3c0,1.04,0.24,1.82,0.71,2.35c0.4,0.44,0.98,0.73,1.75,0.86c0.45,0.08,1.18,0.12,2.19,0.12V45.69
						z"/>
					<path d="M95.91,36.62c0,0.69-0.13,1.26-0.4,1.72c-0.3,0.51-0.88,0.98-1.75,1.41c0.68,0.44,1.12,0.83,1.32,1.16
						c0.27,0.45,0.41,1.15,0.41,2.11v2.66h-3.15v-2.63c0-0.63-0.16-1.13-0.48-1.5c-0.32-0.37-0.78-0.55-1.38-0.55h-3.31v-2.63h3.23
						h0.3c0.5,0,0.86-0.04,1.09-0.12c0.37-0.13,0.55-0.39,0.55-0.78c0-0.44-0.2-0.74-0.61-0.9c-0.26-0.11-0.69-0.16-1.28-0.16h-3.3
						v-2.66h3.33c2.07,0,3.56,0.33,4.46,0.99C95.59,35.23,95.91,35.85,95.91,36.62z"/>
					<path d="M110.77,39.67c0,1.69-0.62,3.14-1.86,4.33c-1.24,1.19-2.73,1.79-4.48,1.79c-1.75,0-3.24-0.59-4.48-1.78
						c-1.24-1.19-1.86-2.63-1.86-4.34c0-1.68,0.62-3.12,1.86-4.32c1.24-1.2,2.74-1.8,4.48-1.8c1.75,0,3.24,0.6,4.48,1.79
						C110.15,36.54,110.77,37.98,110.77,39.67z M107.25,39.78c0-0.93-0.29-1.73-0.86-2.38c-0.57-0.65-1.27-0.98-2.08-0.98
						c-0.8,0-1.49,0.33-2.06,0.98c-0.57,0.65-0.86,1.45-0.86,2.38c0,0.92,0.29,1.71,0.86,2.37c0.57,0.66,1.26,0.99,2.06,0.99
						c0.81,0,1.5-0.33,2.08-0.99C106.96,41.48,107.25,40.69,107.25,39.78z"/>
					<path d="M121.04,45.69c-2.91,0-5-0.57-6.28-1.72c-1.08-0.97-1.63-2.41-1.63-4.3c0-1.81,0.56-3.21,1.66-4.2
						c1.31-1.16,3.39-1.75,6.24-1.75v2.7c-1.04,0-1.78,0.04-2.22,0.12c-0.78,0.14-1.36,0.43-1.74,0.86
						c-0.46,0.51-0.69,1.28-0.69,2.3c0,1.04,0.24,1.82,0.71,2.35c0.4,0.44,0.98,0.73,1.74,0.86c0.45,0.08,1.18,0.12,2.19,0.12V45.69
						z"/>
					<path d="M131.13,36.39h-7.99v-2.67h7.99V36.39z M131.1,45.66h-7.96v-7.28h7.96v2.63h-4.65v2h4.65V45.66z"/>
					<path d="M143.45,45.66h-3.28v-7.31c0-0.72-0.11-1.21-0.34-1.47c-0.29-0.33-0.88-0.49-1.77-0.49h-1.09v9.27h-3.3V33.72h6.28
						c1.16,0,2.04,0.26,2.65,0.76c0.57,0.49,0.86,1.13,0.86,1.94V45.66z"/>
					<path d="M152.16,45.66h-2.96c-1.16,0-2.04-0.24-2.63-0.71c-0.59-0.47-0.89-1.11-0.89-1.92l0.03-4.65h3.28v2.63
						c0,0.73,0.11,1.22,0.33,1.48c0.28,0.33,0.87,0.49,1.76,0.49h1.08V45.66z M153.62,36.42h-7.91v-2.7h7.91V36.42z"/>
					<path d="M164.17,36.39h-7.99v-2.67h7.99V36.39z M164.15,45.66h-7.96v-7.28h7.96v2.63h-4.65v2h4.65V45.66z"/>
					<path d="M175.43,36.62c0,0.69-0.13,1.26-0.39,1.72c-0.3,0.51-0.88,0.98-1.75,1.41c0.68,0.44,1.12,0.83,1.32,1.16
						c0.27,0.45,0.41,1.15,0.41,2.11v2.66h-3.15v-2.63c0-0.63-0.16-1.13-0.48-1.5c-0.32-0.37-0.78-0.55-1.38-0.55h-3.31v-2.63h3.23
						h0.31c0.5,0,0.86-0.04,1.08-0.12c0.37-0.13,0.56-0.39,0.56-0.78c0-0.44-0.2-0.74-0.61-0.9c-0.26-0.11-0.69-0.16-1.28-0.16h-3.3
						v-2.66h3.33c2.07,0,3.56,0.33,4.46,0.99C175.11,35.23,175.43,35.85,175.43,36.62z"/>
					<g>
						<polygon points="71.2,38.17 74.73,38.17 74.73,45.66 71.2,45.66 71.2,38.17 						"/>
						<path d="M72.96,41.91"/>
					</g>
					<g>
						<polygon points="71.72,33.73 74.63,33.73 74.63,35.89 71.72,35.89 71.72,33.73 						"/>
						<path d="M73.17,34.8"/>
					</g>
				</g>
			</g>
		</g>
		<g>
			<path d="M165.5,18.86h-0.26h-8.21c0.4-0.76,0.65-1.91,0.75-3.47c0.1-1.37,0.36-2.3,0.78-2.78c0.66-0.74,1.99-1.11,4.01-1.11
				l0.06-0.06v-0.63c0.02-0.4-0.06-0.75-0.24-1.05l0.06-0.3c0.2-0.18,0.66-0.56,1.37-1.14c0.72-0.58,1.13-0.88,1.22-0.9l0.27,0.18
				v8.43c0,0,0.05,4.07-0.22,4.07C164.83,20.12,165.5,18.86,165.5,18.86z M162.15,5.2c0,0.84-0.43,1.25-1.28,1.25
				c-0.32,0-0.61-0.12-0.87-0.37c-0.26-0.25-0.39-0.54-0.39-0.88c0-0.34,0.12-0.63,0.38-0.88c0.25-0.25,0.54-0.37,0.88-0.37
				c0.38,0,0.69,0.12,0.93,0.36C162.03,4.54,162.15,4.84,162.15,5.2z M162.59,16.17v-2.03h-0.9c-0.32,0-0.62,0.11-0.91,0.33
				c-0.29,0.22-0.43,0.48-0.43,0.78v0.93H162.59z M165.08,5.2c0,0.36-0.12,0.66-0.37,0.9c-0.25,0.24-0.55,0.36-0.88,0.36
				c-0.36,0-0.67-0.11-0.93-0.34c-0.26-0.23-0.39-0.52-0.39-0.88c0-0.36,0.12-0.66,0.37-0.91c0.25-0.25,0.55-0.37,0.91-0.37
				c0.32,0,0.61,0.13,0.88,0.39C164.94,4.59,165.08,4.88,165.08,5.2z"/>
			<path d="M172.16,20.96h-5.83v-2.81h5.83V20.96z"/>
			<path d="M180.86,20.96h-9.26v-2.81h2.39c-0.36-0.42-0.54-1.06-0.54-1.94c0-1.32,0.43-2.31,1.28-2.99c0.14-0.12,1-0.56,2.57-1.32
				c1.05-0.52,1.73-1.18,2.03-2c0.22,0.42,0.33,0.84,0.33,1.25c0,0.84-0.32,1.71-0.96,2.6l0.72,0.78v0.57
				c-0.46-0.36-0.93-0.54-1.4-0.54c-0.48,0-0.9,0.18-1.27,0.54c-0.37,0.36-0.55,0.78-0.55,1.26c0,0.58,0.21,1.05,0.64,1.42
				c0.43,0.37,0.93,0.55,1.51,0.55c0.42,0,0.9-0.18,1.44-0.54c0.04,1.12,0.4,2.13,1.07,3.05V20.96z"/>
			<path d="M193.17,20.96h-3.28l0.06-2.81h3.22V20.96z"/>
			<path d="M198.19,20.96h-5.83v-2.81h5.83V20.96z"/>
			<path d="M210,20.96h-2.72c-0.78,1.85-2.09,2.78-3.95,2.78c-1.93,0-3.26-0.93-3.98-2.78h-1.76v-2.81h1.76
				c0.24-0.72,0.81-1.35,1.7-1.91c1.31-0.78,2.06-1.24,2.24-1.41c0.73,0.46,1.48,0.92,2.23,1.38c0.75,0.46,1.33,1.11,1.75,1.94H210
				V20.96z M204.77,19.65c0-0.36-0.15-0.69-0.45-0.99c-0.3-0.3-0.63-0.45-0.99-0.45c-0.36,0-0.69,0.14-1,0.43
				c-0.31,0.29-0.46,0.61-0.46,0.97c0,0.36,0.14,0.68,0.43,0.97c0.29,0.29,0.62,0.43,1,0.43c0.38,0,0.72-0.14,1.01-0.4
				C204.62,20.35,204.77,20.02,204.77,19.65z"/>
			<path d="M215.02,20.96h-5.83v-2.81h5.83V20.96z"/>
			<path d="M228.53,20.96h-14.05v-2.81h7.89c-0.34-0.32-0.7-0.9-1.08-1.73c-0.44-0.96-0.76-1.58-0.99-1.88
				c-0.46-0.58-1.02-0.87-1.67-0.87c-0.46,0-0.89,0.18-1.29,0.54c-0.76-1.97-1.12-2.99-1.08-3.05c0.73-0.2,1.36-0.3,1.88-0.3
				c1.75,0,3.17,0.64,4.25,1.91c0.32,0.38,0.98,1.56,1.97,3.56c0.64,1.26,1.33,1.86,2.09,1.82h2.06V20.96z M222.49,23.65
				c0,0.36-0.12,0.67-0.36,0.94c-0.24,0.27-0.54,0.4-0.9,0.4c-0.36,0-0.66-0.13-0.9-0.39c-0.24-0.26-0.36-0.57-0.36-0.93
				c0-0.34,0.13-0.64,0.39-0.9c0.26-0.26,0.56-0.39,0.9-0.39c0.36,0,0.65,0.12,0.88,0.37C222.38,23.02,222.49,23.31,222.49,23.65z"
				/>
			<path d="M233.55,20.96h-5.83v-2.81h5.83V20.96z"/>
			<path d="M242.93,19.67c0,1.2-0.39,2.18-1.18,2.94c-0.79,0.77-1.78,1.15-2.98,1.15c-1.95,0-3.28-0.93-3.98-2.78l-1.79-0.03v-2.81
				h1.79c0.24-0.7,0.81-1.31,1.7-1.85c1.5-0.92,2.24-1.39,2.24-1.4c0.38,0.38,1,0.78,1.85,1.2c0.8,0.36,1.34,0.72,1.61,1.08
				C242.69,17.72,242.93,18.56,242.93,19.67z M240.15,19.7c0-0.96-0.46-1.43-1.38-1.43c-0.36,0-0.69,0.14-0.99,0.43
				c-0.3,0.29-0.45,0.61-0.45,0.97c0,0.34,0.14,0.65,0.43,0.94c0.29,0.29,0.61,0.43,0.97,0.43C239.69,21.05,240.15,20.6,240.15,19.7
				z"/>
			<path d="M162.89,18.57c0,0,0.11,2.39,3.44,2.39v-2.81c0,0-1-0.05-1.37-1.37L162.89,18.57z"/>
		</g>
		<path d="M185.69,17.42c0,0,0.35-1.83,1.11-1.83c1,0,1,1.83,1,1.83H185.69z M186.62,24.97c3.87,0,3.99-4.36,3.99-5.52
			c0-1.85-1.42-5.16-3.03-5.16c-1.45,0-3.48,2.48-3.48,5.53v1.13h3.73v0.66c-0.22,2.54-4.18,1.83-4.18,1.83
			S184.68,24.97,186.62,24.97z"/>
	</g>
</g>
</svg>
